<?xml version="1.0" encoding="UTF-8" standalone="no"?>
<!-- Created with Inkscape (http://www.inkscape.org/) -->
<svg
   xmlns:dc="http://purl.org/dc/elements/1.1/"
   xmlns:cc="http://creativecommons.org/ns#"
   xmlns:rdf="http://www.w3.org/1999/02/22-rdf-syntax-ns#"
   xmlns:svg="http://www.w3.org/2000/svg"
   xmlns="http://www.w3.org/2000/svg"
   xmlns:xlink="http://www.w3.org/1999/xlink"
   xmlns:sodipodi="http://sodipodi.sourceforge.net/DTD/sodipodi-0.dtd"
   xmlns:inkscape="http://www.inkscape.org/namespaces/inkscape"
   width="744.09448819"
   height="1052.3622047"
   id="svg2"
   sodipodi:version="0.32"
   inkscape:version="0.46"
   sodipodi:docname="NeuronVisio_logo.svg"
   inkscape:output_extension="org.inkscape.output.svg.inkscape"
   inkscape:export-filename="/home/mattions/Work/model/MSN/neuronvisio/NeuronVisio_logo.png"
   inkscape:export-xdpi="90"
   inkscape:export-ydpi="90">
  <defs
     id="defs4">
    <linearGradient
       inkscape:collect="always"
       id="linearGradient3812">
      <stop
         style="stop-color:#3c16f5;stop-opacity:1;"
         offset="0"
         id="stop3814" />
      <stop
         style="stop-color:#3c16f5;stop-opacity:0;"
         offset="1"
         id="stop3816" />
    </linearGradient>
    <linearGradient
       id="linearGradient3804">
      <stop
         style="stop-color:#1ac406;stop-opacity:0.60784316;"
         offset="0"
         id="stop3806" />
      <stop
         style="stop-color:#ffffff;stop-opacity:1;"
         offset="1"
         id="stop3808" />
    </linearGradient>
    <inkscape:perspective
       sodipodi:type="inkscape:persp3d"
       inkscape:vp_x="0 : 526.18109 : 1"
       inkscape:vp_y="0 : 1000 : 0"
       inkscape:vp_z="744.09448 : 526.18109 : 1"
       inkscape:persp3d-origin="372.04724 : 350.78739 : 1"
       id="perspective10" />
    <inkscape:perspective
       id="perspective3174"
       inkscape:persp3d-origin="372.04724 : 350.78739 : 1"
       inkscape:vp_z="744.09448 : 526.18109 : 1"
       inkscape:vp_y="0 : 1000 : 0"
       inkscape:vp_x="0 : 526.18109 : 1"
       sodipodi:type="inkscape:persp3d" />
    <inkscape:perspective
       id="perspective3305"
       inkscape:persp3d-origin="372.04724 : 350.78739 : 1"
       inkscape:vp_z="744.09448 : 526.18109 : 1"
       inkscape:vp_y="0 : 1000 : 0"
       inkscape:vp_x="0 : 526.18109 : 1"
       sodipodi:type="inkscape:persp3d" />
    <linearGradient
       id="linearGradient2846">
      <stop
         id="stop2848"
         offset="0.0000000"
         style="stop-color:#8a8a8a;stop-opacity:1.0000000;" />
      <stop
         id="stop2850"
         offset="1.0000000"
         style="stop-color:#484848;stop-opacity:1.0000000;" />
    </linearGradient>
    <linearGradient
       id="linearGradient2366">
      <stop
         id="stop2368"
         offset="0"
         style="stop-color:#ffffff;stop-opacity:1;" />
      <stop
         style="stop-color:#ffffff;stop-opacity:0.21904762;"
         offset="0.50000000"
         id="stop2374" />
      <stop
         id="stop2370"
         offset="1.0000000"
         style="stop-color:#ffffff;stop-opacity:1.0000000;" />
    </linearGradient>
    <linearGradient
       inkscape:collect="always"
       id="linearGradient4477">
      <stop
         style="stop-color:#000000;stop-opacity:1;"
         offset="0"
         id="stop4479" />
      <stop
         style="stop-color:#000000;stop-opacity:0;"
         offset="1"
         id="stop4481" />
    </linearGradient>
    <linearGradient
       id="linearGradient4467">
      <stop
         style="stop-color:#ffffff;stop-opacity:1;"
         offset="0"
         id="stop4469" />
      <stop
         style="stop-color:#ffffff;stop-opacity:0.24761905;"
         offset="1.0000000"
         id="stop4471" />
    </linearGradient>
    <linearGradient
       id="linearGradient4454">
      <stop
         style="stop-color:#729fcf;stop-opacity:0.20784314;"
         offset="0.0000000"
         id="stop4456" />
      <stop
         style="stop-color:#729fcf;stop-opacity:0.67619050;"
         offset="1.0000000"
         id="stop4458" />
    </linearGradient>
    <linearGradient
       id="linearGradient4440">
      <stop
         style="stop-color:#7d7d7d;stop-opacity:1;"
         offset="0"
         id="stop4442" />
      <stop
         id="stop4448"
         offset="0.50000000"
         style="stop-color:#b1b1b1;stop-opacity:1.0000000;" />
      <stop
         style="stop-color:#686868;stop-opacity:1.0000000;"
         offset="1.0000000"
         id="stop4444" />
    </linearGradient>
    <radialGradient
       gradientUnits="userSpaceOnUse"
       gradientTransform="matrix(1.000000,0.000000,0.000000,0.284916,0.000000,30.08928)"
       r="15.821514"
       fy="42.07798"
       fx="24.306795"
       cy="42.07798"
       cx="24.306795"
       id="radialGradient4548"
       xlink:href="#linearGradient4542"
       inkscape:collect="always" />
    <linearGradient
       id="linearGradient259">
      <stop
         style="stop-color:#fafafa;stop-opacity:1.0000000;"
         offset="0.0000000"
         id="stop260" />
      <stop
         style="stop-color:#bbbbbb;stop-opacity:1.0000000;"
         offset="1.0000000"
         id="stop261" />
    </linearGradient>
    <linearGradient
       id="linearGradient269">
      <stop
         style="stop-color:#a3a3a3;stop-opacity:1.0000000;"
         offset="0.0000000"
         id="stop270" />
      <stop
         style="stop-color:#4c4c4c;stop-opacity:1.0000000;"
         offset="1.0000000"
         id="stop271" />
    </linearGradient>
    <radialGradient
       gradientUnits="userSpaceOnUse"
       fy="114.5684"
       fx="20.8921"
       r="5.256"
       cy="114.5684"
       cx="20.8921"
       id="aigrd2">
      <stop
         id="stop15566"
         style="stop-color:#F0F0F0"
         offset="0" />
      <stop
         id="stop15568"
         style="stop-color:#9a9a9a;stop-opacity:1.0000000;"
         offset="1.0000000" />
    </radialGradient>
    <radialGradient
       gradientUnits="userSpaceOnUse"
       fy="64.5679"
       fx="20.8921"
       r="5.257"
       cy="64.5679"
       cx="20.8921"
       id="aigrd3">
      <stop
         id="stop15573"
         style="stop-color:#F0F0F0"
         offset="0" />
      <stop
         id="stop15575"
         style="stop-color:#9a9a9a;stop-opacity:1.0000000;"
         offset="1.0000000" />
    </radialGradient>
    <linearGradient
       id="linearGradient15662">
      <stop
         style="stop-color:#ffffff;stop-opacity:1.0000000;"
         offset="0.0000000"
         id="stop15664" />
      <stop
         style="stop-color:#f8f8f8;stop-opacity:1.0000000;"
         offset="1.0000000"
         id="stop15666" />
    </linearGradient>
    <linearGradient
       id="linearGradient4542"
       inkscape:collect="always">
      <stop
         id="stop4544"
         offset="0"
         style="stop-color:#000000;stop-opacity:1;" />
      <stop
         id="stop4546"
         offset="1"
         style="stop-color:#000000;stop-opacity:0;" />
    </linearGradient>
    <linearGradient
       id="linearGradient5048">
      <stop
         id="stop5050"
         offset="0"
         style="stop-color:black;stop-opacity:0;" />
      <stop
         style="stop-color:black;stop-opacity:1;"
         offset="0.5"
         id="stop5056" />
      <stop
         id="stop5052"
         offset="1"
         style="stop-color:black;stop-opacity:0;" />
    </linearGradient>
    <inkscape:perspective
       id="perspective113"
       inkscape:persp3d-origin="24 : 16 : 1"
       inkscape:vp_z="48 : 24 : 1"
       inkscape:vp_y="0 : 1000 : 0"
       inkscape:vp_x="0 : 24 : 1"
       sodipodi:type="inkscape:persp3d" />
    <linearGradient
       inkscape:collect="always"
       xlink:href="#linearGradient3804"
       id="linearGradient3905"
       gradientUnits="userSpaceOnUse"
       x1="197.44832"
       y1="248.07498"
       x2="376.5235"
       y2="248.07498" />
    <radialGradient
       inkscape:collect="always"
       xlink:href="#linearGradient3812"
       id="radialGradient3907"
       gradientUnits="userSpaceOnUse"
       gradientTransform="matrix(1.1992993,-0.550611,0.7832542,1.7060253,-259.78978,2.7504766)"
       cx="327.66437"
       cy="253.98875"
       fx="327.66437"
       fy="253.98875"
       r="34.636055" />
    <radialGradient
       inkscape:collect="always"
       xlink:href="#linearGradient4477"
       id="radialGradient3909"
       gradientUnits="userSpaceOnUse"
       gradientTransform="matrix(1,0,0,0.237968,0,28.93278)"
       cx="24.130018"
       cy="37.967922"
       fx="24.130018"
       fy="37.967922"
       r="16.528622" />
    <linearGradient
       inkscape:collect="always"
       xlink:href="#linearGradient2846"
       id="linearGradient3911"
       gradientUnits="userSpaceOnUse"
       gradientTransform="matrix(-0.665377,0,0,0.665377,331.608,259.46018)"
       x1="27.366341"
       y1="26.580296"
       x2="31.335964"
       y2="30.557772" />
    <linearGradient
       inkscape:collect="always"
       xlink:href="#linearGradient4440"
       id="linearGradient3913"
       gradientUnits="userSpaceOnUse"
       gradientTransform="matrix(-0.8880075,0,0,0.859196,336.24823,254.49603)"
       x1="30.656250"
       y1="34.000000"
       x2="33.218750"
       y2="31.062500" />
    <linearGradient
       inkscape:collect="always"
       xlink:href="#linearGradient2366"
       id="linearGradient3915"
       gradientUnits="userSpaceOnUse"
       x1="18.292673"
       y1="13.602121"
       x2="17.500893"
       y2="25.743469" />
    <radialGradient
       inkscape:collect="always"
       xlink:href="#linearGradient4454"
       id="radialGradient3917"
       gradientUnits="userSpaceOnUse"
       cx="18.240929"
       cy="21.817987"
       fx="18.240929"
       fy="21.817987"
       r="8.3085051" />
    <linearGradient
       inkscape:collect="always"
       xlink:href="#linearGradient4440"
       id="linearGradient2467"
       gradientUnits="userSpaceOnUse"
       gradientTransform="matrix(-1.4878493,0,0,1.3285692,470.40051,468.16163)"
       x1="30.656250"
       y1="34.000000"
       x2="33.218750"
       y2="31.062500" />
    <linearGradient
       inkscape:collect="always"
       xlink:href="#linearGradient2846"
       id="linearGradient2471"
       gradientUnits="userSpaceOnUse"
       gradientTransform="matrix(-1.1148337,0,0,1.0288681,462.62584,475.83767)"
       x1="27.366341"
       y1="26.580296"
       x2="31.335964"
       y2="30.557772" />
    <radialGradient
       inkscape:collect="always"
       xlink:href="#linearGradient3812"
       id="radialGradient2476"
       gradientUnits="userSpaceOnUse"
       gradientTransform="matrix(2.0094161,-0.8514062,1.312336,2.6380158,-528.25629,78.889121)"
       cx="327.66437"
       cy="253.98875"
       fx="327.66437"
       fy="253.98875"
       r="34.636055" />
    <linearGradient
       inkscape:collect="always"
       xlink:href="#linearGradient3804"
       id="linearGradient2481"
       gradientUnits="userSpaceOnUse"
       x1="197.44832"
       y1="248.07498"
       x2="376.5235"
       y2="248.07498"
       gradientTransform="matrix(1.6754918,0,0,1.5462935,-92.98064,74.636077)" />
  </defs>
  <sodipodi:namedview
     id="base"
     pagecolor="#ffffff"
     bordercolor="#666666"
     borderopacity="1.0"
     gridtolerance="10000"
     guidetolerance="10"
     objecttolerance="10"
     inkscape:pageopacity="0.0"
     inkscape:pageshadow="2"
     inkscape:zoom="1.4"
     inkscape:cx="368.33486"
     inkscape:cy="620.88464"
     inkscape:document-units="px"
     inkscape:current-layer="layer1"
     showgrid="false"
     inkscape:window-width="1280"
     inkscape:window-height="945"
     inkscape:window-x="0"
     inkscape:window-y="27"
     showguides="true"
     inkscape:guide-bbox="true" />
  <metadata
     id="metadata7">
    <rdf:RDF>
      <cc:Work
         rdf:about="">
        <dc:format>image/svg+xml</dc:format>
        <dc:type
           rdf:resource="http://purl.org/dc/dcmitype/StillImage" />
      </cc:Work>
    </rdf:RDF>
  </metadata>
  <g
     inkscape:label="Layer 1"
     inkscape:groupmode="layer"
     id="layer1">
    <rect
       style="fill:url(#linearGradient2481);fill-opacity:1;stroke:#000000;stroke-width:0.95220548;stroke-miterlimit:4;stroke-dasharray:none;stroke-dashoffset:0;stroke-opacity:1"
       id="rect3428"
       width="299.04779"
       height="199.98094"
       x="238.338"
       y="358.24234" />
    <text
       xml:space="preserve"
       style="font-size:28px;font-style:normal;font-variant:normal;font-weight:normal;font-stretch:normal;text-align:start;line-height:100%;writing-mode:lr-tb;text-anchor:start;fill:#098100;fill-opacity:1;stroke:#000000;stroke-width:0.96575814;stroke-linecap:butt;stroke-linejoin:miter;stroke-miterlimit:4;stroke-dasharray:none;stroke-opacity:1;font-family:DejaVu Sans;-inkscape-font-specification:DejaVu Sans"
       x="247.92307"
       y="481.11514"
       id="text3396"
       sodipodi:linespacing="100%"
       transform="scale(1.0409388,0.9606713)"><tspan
         sodipodi:role="line"
         id="tspan3398"
         x="247.92307"
         y="481.11514"
         style="font-size:28px;font-style:normal;font-variant:normal;font-weight:normal;font-stretch:normal;text-align:start;line-height:100%;writing-mode:lr-tb;text-anchor:start;fill:#098100;fill-opacity:1;stroke:#000000;stroke-width:0.96575814;stroke-miterlimit:4;stroke-dasharray:none;stroke-opacity:1;font-family:DejaVu Sans;-inkscape-font-specification:DejaVu Sans">NeuronVisio</tspan></text>
    <path
       style="fill:url(#radialGradient2476);fill-opacity:1;fill-rule:evenodd;stroke:#000000;stroke-width:1.60959685px;stroke-linecap:butt;stroke-linejoin:miter;stroke-opacity:1"
       d="M 470.92812,547.69688 C 469.14786,548.41025 465.51188,548.51816 464.34584,548.24914 C 463.37104,548.02423 462.55067,542.70353 462.55067,542.17442 C 462.55067,539.27123 463.33903,536.80097 462.55067,533.89069 C 461.78054,531.04771 462.55067,528.5356 462.55067,526.71148 C 462.55067,524.89066 461.70407,520.82499 461.3539,519.53226 C 460.72314,517.20377 461.32152,514.68152 461.95228,512.35303 C 462.40661,510.67586 462.26942,507.31657 462.55067,506.27831 C 462.92407,504.8999 461.95228,500.49149 461.95228,498.54684 C 461.95228,497.97123 456.02573,495.68724 455.36999,495.23335 C 453.31324,493.80974 452.90454,495.30505 448.78771,495.23335 C 446.11717,494.53427 445.04963,495.25877 443.14525,493.12084 C 441.24086,490.9829 440.61622,488.40961 439.96147,485.98321 C 439.29707,483.52101 442.80381,482.47222 442.80381,479.77042 C 442.80381,477.92042 442.20542,476.09795 442.20542,474.24794 C 442.20542,471.55164 443.38409,471.52012 444.59898,469.27772 C 445.54414,467.53314 448.02124,466.11935 449.38609,464.85974 C 451.40323,462.99813 450.78657,463.56726 452.97644,461.54625 C 455.36059,459.34594 454.94512,457.44854 453.57482,454.91927 C 452.7447,453.38706 453.61634,450.02568 452.37803,447.74006 C 450.97077,445.14253 450.48294,444.42767 451.18126,440.56084 C 451.3339,439.71563 448.49423,436.14989 447.59092,435.03836 C 446.34641,433.50697 444.94659,432.71366 441.60702,431.17262 C 438.43721,429.70992 437.6043,429.68755 435.62312,427.85913 C 433.93062,426.29714 430.5833,428.84703 428.44244,427.85913 C 425.22223,426.37319 424.55649,427.44661 421.86016,426.2024 C 419.96745,425.32901 419.5779,423.9934 415.87626,423.9934 C 413.37156,423.9934 410.30453,422.70789 408.69558,422.33667 C 405.02838,421.49055 403.83458,422.26848 401.5149,420.12767 C 398.94881,417.75946 401.12685,417.36643 404.50685,417.36643 C 406.55038,417.36643 410.99955,417.91868 411.68753,417.91868 C 415.56976,417.91868 415.84228,418.9918 417.67143,420.67992 C 419.11919,422.01605 423.97612,421.23217 426.04889,421.23217 C 427.88784,421.23217 429.59543,422.33667 431.43439,422.33667 C 434.40376,422.33667 428.60515,417.44151 428.44244,417.36643 C 426.1533,416.31011 424.8174,414.47706 424.25371,412.3962 C 423.64082,410.13366 421.78092,408.38423 421.26177,407.42598 C 420.4735,405.97102 417.16776,404.70844 415.87626,404.11249 C 412.1092,402.37421 411.96162,402.02997 409.29397,400.799 C 406.54099,399.52865 405.65051,398.59001 402.11328,398.59001 C 399.64562,398.59001 396.65233,396.91587 394.33422,396.38102 C 392.66021,395.99479 392.09865,392.54627 391.94067,391.96304 C 391.58925,390.66576 395.88127,392.95304 397.32617,393.61979 C 399.94178,394.82675 403.55965,394.2181 406.30201,394.72427 C 408.46951,395.12435 410.5655,397.24388 412.28591,398.03776 C 413.89157,398.77869 415.92985,398.43958 417.67143,398.03776 C 417.99476,397.96316 414.76277,392.66903 414.67947,392.51529 C 413.33271,390.02945 414.77407,388.44648 414.08108,385.88832 C 413.4604,383.59701 410.47837,381.74074 408.69558,380.91808 C 408.18633,380.68309 406.76904,377.67187 406.30201,375.94786 C 405.70235,373.73413 402.03958,372.01409 400.91651,370.97763 C 400.04162,370.1702 401.60038,364.50843 403.90845,368.76864 C 405.18803,371.13043 406.38955,371.29415 408.09718,372.08213 C 409.88882,372.90886 411.41853,375.45133 412.28591,377.05235 C 413.1533,378.65335 415.98501,380.1315 417.07304,381.47033 C 418.63174,383.38833 418.58693,384.29771 419.4666,387.54507 C 420.03635,389.64837 419.82623,389.97717 420.66337,393.06753 C 421.41061,395.82596 421.77092,396.76855 422.45854,398.03776 C 423.83563,400.57956 423.9886,399.82032 424.8521,403.008 C 425.2153,404.34875 429.53166,407.10954 430.23762,407.97822 C 431.98314,410.12613 431.8295,411.65634 433.82796,413.5007 C 436.14761,415.64148 438.27624,411.43805 438.61508,410.18721 C 439.47686,407.00587 439.18533,405.32084 439.81185,403.008 C 440.54365,400.30655 440.48177,399.56247 441.60702,397.48552 C 442.77395,395.33163 443.35992,393.77586 444.00058,391.4108 C 444.83936,388.31438 446.29151,387.90786 447.59092,390.3063 C 448.76758,392.47816 448.03245,395.85559 447.59092,397.48552 C 446.73082,400.66063 445.78598,401.90576 443.40219,402.45574 C 442.16457,402.7413 440.66425,408.61387 440.41025,409.08272 C 439.51599,410.73333 440.6064,413.1203 441.00863,414.6052 C 441.8084,417.55757 439.64932,419.32318 438.61508,421.23217 C 437.60586,423.09496 441.80649,424.17749 443.40219,425.65014 C 445.35741,427.45459 446.08051,428.60848 448.1893,430.06814 C 451.06507,432.05863 452.78826,431.04238 455.36999,432.82937 C 456.93814,433.91479 457.33704,438.43408 457.76355,440.00859 C 458.42616,442.45466 459.36748,443.69783 460.15711,444.42657 C 462.00474,446.13173 460.94824,447.34709 461.3539,448.84455 C 461.69621,450.10826 461.3539,453.10271 461.3539,454.36703 C 461.3539,457.31169 463.04986,457.03672 464.94422,458.785 C 465.56018,459.35345 466.97308,459.99733 469.13295,460.99401 C 473.04576,462.79954 472.07017,462.38725 475.71526,461.54625 C 476.98287,461.25378 476.61025,456.58556 476.91203,455.47153 C 477.59883,452.93619 478.10881,451.1991 478.10881,449.94905 C 478.10881,446.80721 476.83676,445.9444 475.71526,443.87433 C 474.72311,442.04307 475.0808,438.51824 475.71526,435.5906 C 476.4393,432.24954 475.41012,429.78653 473.92008,428.41139 C 473.2616,427.80368 472.76711,427.34733 470.92812,425.65014 C 470.19057,424.96947 467.29403,424.52546 464.94422,423.44116 C 462.00586,422.08526 460.66296,419.49002 460.15711,419.02318 C 459.90701,418.79236 463.33766,416.43598 465.54262,418.47094 C 467.25106,420.04761 470.79047,420.55287 472.7233,422.33667 C 474.09229,423.60008 476.39276,425.94224 476.91203,427.85913 C 477.33842,429.43321 481.10076,423.00133 481.10076,421.23217 C 481.10076,418.8446 480.71023,418.13378 479.90399,415.15745 C 479.22642,412.65618 480.75869,409.24102 481.10076,407.97822 C 481.55542,406.29981 481.2066,402.29422 481.10076,401.9035 C 480.01549,397.89718 480.61843,398.59001 484.6911,398.59001 C 486.56601,398.59001 485.53359,403.9091 485.88787,405.21699 C 486.61991,407.91932 486.16754,410.81156 485.88787,411.84395 C 485.47483,413.36875 484.58518,416.65296 484.09271,418.47094 C 483.78845,419.59412 483.9828,422.19011 483.49431,423.9934 C 482.77337,426.65482 483.01834,429.41551 483.49431,431.17262 C 484.32596,434.24271 482.8202,433.38161 487.68304,433.38161 C 490.87472,433.38161 491.06122,431.56425 492.47017,428.96363 C 494.31228,425.56352 495.88002,424.44923 497.85567,423.9934 C 500.25081,423.4408 501.95128,422.86742 504.43796,423.44116 C 506.46108,423.90794 507.59328,428.41139 503.83958,428.41139 C 499.90882,428.41139 498.40068,427.90841 496.6589,429.51588 C 495.00677,431.04062 493.50737,433.12391 493.06856,433.93387 C 491.40077,437.01222 490.48043,436.46387 487.08466,437.24735 C 484.20764,437.91114 483.38529,439.30658 482.89593,441.11308 C 482.20268,443.67226 482.29754,445.27252 482.29754,446.63556 C 482.29754,448.89196 481.69914,450.4436 481.69914,453.81478 C 481.69914,456.6542 482.33161,458.65926 481.69914,460.99401 C 481.02415,463.48577 479.30558,465.89492 479.30558,465.96423 C 479.30558,468.81457 478.42273,469.22337 477.51041,472.59121 C 476.81089,475.17352 477.65283,476.71978 478.7072,478.66593 C 479.36719,479.88412 479.84469,482.31277 480.50237,484.74065 C 481.11124,486.98834 481.21843,488.94145 479.90399,491.36762 C 479.02573,492.98869 479.83623,495.29587 477.51041,497.44234 C 475.69778,499.11521 474.1703,500.52491 472.7233,501.86033 C 470.90646,503.53706 470.32974,504.08568 470.32974,507.38281 C 470.32974,510.4567 469.13295,509.85371 469.13295,513.45753 C 469.13295,515.77323 468.53457,518.71298 468.53457,521.74124 C 468.53457,523.05714 469.73135,526.96144 469.73135,528.92047 C 469.73135,531.10674 469.13295,533.78904 469.13295,536.65194 C 469.13295,539.20281 468.53457,541.62254 468.53457,544.3834 C 468.53457,545.71084 470.13027,546.59239 470.92812,547.69688 z"
       id="path3430"
       sodipodi:nodetypes="cssssssssscszssssssssssssssssssssssssssssssssssssssssssssssssssssssssssssssssssssssssssssssssssssssssssssssssssssssssssssssssssc" />
    <path
       sodipodi:type="arc"
       style="fill:#660300;fill-opacity:1;stroke:#000000;stroke-width:0.63499999;stroke-miterlimit:4;stroke-dasharray:none;stroke-dashoffset:0;stroke-opacity:1"
       id="path3434"
       sodipodi:cx="333.39285"
       sodipodi:cy="429.32648"
       sodipodi:rx="4.1071429"
       sodipodi:ry="6.9642859"
       d="M 337.5,429.32648 A 4.1071429,6.9642859 0 1 1 329.28571,429.32648 A 4.1071429,6.9642859 0 1 1 337.5,429.32648 z"
       transform="matrix(1.6754918,0,0,1.5462935,-97.542318,-184.92266)" />
    <path
       sodipodi:type="arc"
       style="opacity:0.17112301;fill:url(#radialGradient3909);fill-opacity:1;fill-rule:evenodd;stroke:none;stroke-width:1;stroke-linecap:round;stroke-linejoin:miter;marker:none;marker-start:none;marker-mid:none;marker-end:none;stroke-miterlimit:10;stroke-dasharray:none;stroke-dashoffset:0;stroke-opacity:1;visibility:visible;display:inline;overflow:visible"
       id="path4475"
       sodipodi:cx="24.130018"
       sodipodi:cy="37.967922"
       sodipodi:rx="16.528622"
       sodipodi:ry="3.9332814"
       d="M 40.65864,37.967922 A 16.528622,3.9332814 0 1 1 7.6013966,37.967922 A 16.528622,3.9332814 0 1 1 40.65864,37.967922 z"
       transform="matrix(-1.61253,0,0,1.5638693,474.86062,457.57353)" />
    <path
       sodipodi:nodetypes="csscccscccscczzzz"
       id="path2844"
       d="M 441.8592,479.07197 C 450.93297,479.07197 458.29721,485.86833 458.29721,494.24243 C 458.29721,502.61652 450.93297,509.41288 441.8592,509.41288 C 437.98008,509.41288 434.55593,507.98853 431.74352,505.91201 C 431.97247,506.94796 431.83051,508.00614 430.90054,508.75161 L 418.67741,518.55406 C 417.30235,519.65632 415.2354,519.51189 414.04104,518.24286 C 412.8467,516.97384 413.00319,515.06628 414.37823,513.96402 L 426.60136,504.16157 C 427.35001,503.56146 428.26568,503.38377 429.17244,503.5003 C 426.95759,500.91535 425.4212,497.79131 425.4212,494.24243 C 425.4212,485.86833 432.78542,479.07197 441.8592,479.07197 z M 441.94351,480.33355 C 433.42678,480.33355 427.12539,485.26075 427.12539,494.00903 C 427.12539,502.93459 433.61003,507.68452 441.94351,507.68452 C 450.08507,507.68452 456.76162,502.04828 456.76162,494.00903 C 456.76162,485.79444 450.26812,480.33355 441.94351,480.33355 z"
       style="fill:#dcdcdc;fill-opacity:1;fill-rule:evenodd;stroke:url(#linearGradient2471);stroke-width:3.21919489;stroke-linecap:round;stroke-linejoin:miter;marker:none;marker-start:none;marker-mid:none;marker-end:none;stroke-miterlimit:10;stroke-dasharray:none;stroke-dashoffset:0;stroke-opacity:1;visibility:visible;display:inline;overflow:visible" />
    <path
       style="fill:#dcdcdc;fill-opacity:1;fill-rule:evenodd;stroke:none;stroke-width:1.00000036;stroke-linecap:round;stroke-linejoin:miter;marker:none;marker-start:none;marker-mid:none;marker-end:none;stroke-miterlimit:10;stroke-dasharray:none;stroke-dashoffset:0;stroke-opacity:1;visibility:visible;display:inline;overflow:visible"
       d="M 441.88669,479.00695 C 450.98981,479.00695 458.37784,485.82528 458.37784,494.22644 C 458.37784,502.6276 450.98981,509.44594 441.88669,509.44594 C 437.99503,509.44594 434.55982,508.01698 431.7383,505.93375 C 431.96801,506.97304 431.82558,508.03464 430.89262,508.78252 L 418.62996,518.61665 C 417.25046,519.72248 415.17684,519.57759 413.97863,518.30447 C 412.7804,517.03134 412.93739,515.1176 414.31689,514.01179 L 426.57955,504.17765 C 427.3306,503.57559 428.24923,503.39735 429.15892,503.51423 C 426.93693,500.92093 425.39556,497.78679 425.39556,494.22644 C 425.39556,485.82528 432.78359,479.00695 441.88669,479.00695 z M 441.97127,482.28498 C 434.96887,482.28498 429.28579,487.52986 429.28579,493.9923 C 429.28579,500.45472 434.96887,505.69959 441.97127,505.69959 C 448.97365,505.69959 454.65675,500.45472 454.65675,493.9923 C 454.65675,487.52986 448.97365,482.28498 441.97127,482.28498 z"
       id="path4430" />
    <path
       style="fill:url(#linearGradient2467);fill-opacity:1;fill-rule:evenodd;stroke:none;stroke-width:1;stroke-linecap:round;stroke-linejoin:miter;marker:none;marker-start:none;marker-mid:none;marker-end:none;stroke-miterlimit:10;stroke-dasharray:none;stroke-dashoffset:0;stroke-opacity:1;visibility:visible;display:inline;overflow:visible"
       d="M 418.58211,518.61563 C 419.11575,516.27681 417.02432,513.66531 414.58648,513.68901 C 414.58648,513.68901 426.5825,504.16365 426.5825,504.16365 C 429.86546,504.1053 431.34229,506.50187 430.79303,508.89635 L 418.58211,518.61563 z"
       id="path4438"
       sodipodi:nodetypes="ccccc" />
    <path
       sodipodi:type="arc"
       style="fill:none;fill-opacity:1;fill-rule:evenodd;stroke:url(#linearGradient3915);stroke-width:1.20643401;stroke-linecap:round;stroke-linejoin:miter;marker:none;marker-start:none;marker-mid:none;marker-end:none;stroke-miterlimit:10;stroke-dasharray:none;stroke-dashoffset:0;stroke-opacity:1;visibility:visible;display:inline;overflow:visible"
       id="path4450"
       sodipodi:cx="17.500893"
       sodipodi:cy="18.920233"
       sodipodi:rx="11.048544"
       sodipodi:ry="11.048544"
       d="M 28.549437,18.920233 A 11.048544,11.048544 0 1 1 6.4523487,18.920233 A 11.048544,11.048544 0 1 1 28.549437,18.920233 z"
       transform="matrix(-1.3887962,0,0,1.2817052,466.44454,469.48231)" />
    <rect
       style="opacity:0.43315507;fill:none;fill-opacity:1;fill-rule:evenodd;stroke:#ffffff;stroke-width:1.61141157;stroke-linecap:round;stroke-linejoin:miter;marker:none;marker-start:none;marker-mid:none;marker-end:none;stroke-miterlimit:10;stroke-dasharray:none;stroke-dashoffset:0;stroke-opacity:1;visibility:visible;display:inline;overflow:visible"
       id="rect4495"
       width="20.542816"
       height="4.7331562"
       x="26.680222"
       y="662.4632"
       rx="2.1366608"
       ry="1.8879361"
       transform="matrix(-0.7783885,0.6277828,0.6786848,0.7344297,0,0)" />
    <path
       sodipodi:type="arc"
       style="fill:url(#radialGradient3917);fill-opacity:1;fill-rule:evenodd;stroke:#3063a3;stroke-width:1.07456946;stroke-linecap:round;stroke-linejoin:miter;marker:none;marker-start:none;marker-mid:none;marker-end:none;stroke-miterlimit:10;stroke-dashoffset:0;stroke-opacity:1;visibility:visible"
       id="path4452"
       sodipodi:cx="17.589281"
       sodipodi:cy="18.478292"
       sodipodi:rx="8.3085051"
       sodipodi:ry="8.3085051"
       d="M 25.897786,18.478292 A 8.3085051,8.3085051 0 1 1 9.280776,18.478292 A 8.3085051,8.3085051 0 1 1 25.897786,18.478292 z"
       transform="matrix(-1.5592221,0,0,1.4389894,469.56494,467.29913)" />
    <path
       style="fill:none;fill-rule:evenodd;stroke:#000000;stroke-width:1.60959685px;stroke-linecap:butt;stroke-linejoin:miter;stroke-opacity:1"
       d="M 261.12101,468.31345 C 418.31218,465.77521 430.77133,472.28026 430.77133,472.28026"
       id="path3888"
       sodipodi:nodetypes="cc" />
  </g>
</svg>
